<svg width="32" height="32" viewBox="0 0 32 32" fill="none" xmlns="http://www.w3.org/2000/svg">
  <!-- Background Circle -->
  <circle cx="16" cy="16" r="16" fill="url(#gradient)"/>
  
  <!-- AI Brain Icon -->
  <path d="M12 8c-2.2 0-4 1.8-4 4v2c0 .6.4 1 1 1s1-.4 1-1v-2c0-1.1.9-2 2-2h8c1.1 0 2 .9 2 2v2c0 .6.4 1 1 1s1-.4 1-1v-2c0-2.2-1.8-4-4-4h-8z" fill="white"/>
  
  <!-- Tax Calculator/Grid -->
  <rect x="10" y="16" width="3" height="2" rx="0.5" fill="white" opacity="0.9"/>
  <rect x="14" y="16" width="3" height="2" rx="0.5" fill="white" opacity="0.9"/>
  <rect x="18" y="16" width="3" height="2" rx="0.5" fill="white" opacity="0.9"/>
  
  <rect x="10" y="19" width="3" height="2" rx="0.5" fill="white" opacity="0.7"/>
  <rect x="14" y="19" width="3" height="2" rx="0.5" fill="white" opacity="0.7"/>
  <rect x="18" y="19" width="3" height="2" rx="0.5" fill="white" opacity="0.7"/>
  
  <rect x="10" y="22" width="3" height="2" rx="0.5" fill="white" opacity="0.5"/>
  <rect x="14" y="22" width="3" height="2" rx="0.5" fill="white" opacity="0.5"/>
  <rect x="18" y="22" width="3" height="2" rx="0.5" fill="white" opacity="0.5"/>
  
  <!-- AI Neural Connections -->
  <circle cx="11.5" cy="12" r="1" fill="white" opacity="0.8"/>
  <circle cx="16" cy="11" r="1" fill="white" opacity="0.8"/>
  <circle cx="20.5" cy="12" r="1" fill="white" opacity="0.8"/>
  
  <line x1="11.5" y1="12" x2="16" y2="11" stroke="white" stroke-width="0.5" opacity="0.6"/>
  <line x1="16" y1="11" x2="20.5" y2="12" stroke="white" stroke-width="0.5" opacity="0.6"/>
  <line x1="11.5" y1="12" x2="20.5" y2="12" stroke="white" stroke-width="0.5" opacity="0.4"/>
  
  <defs>
    <linearGradient id="gradient" x1="0%" y1="0%" x2="100%" y2="100%">
      <stop offset="0%" style="stop-color:#3B82F6;stop-opacity:1" />
      <stop offset="50%" style="stop-color:#6366F1;stop-opacity:1" />
      <stop offset="100%" style="stop-color:#8B5CF6;stop-opacity:1" />
    </linearGradient>
  </defs>
</svg>